<?xml version="1.0" encoding="utf-8"?>
<svg viewBox="85.037 130.561 268.94 216.544" xmlns="http://www.w3.org/2000/svg">
  <g transform="matrix(1.135081, 0, 0, 1.318492, -53.65823, -87.579269)" style="">
    <path d="M 161.404 160.869 L 155.81 160.869 L 155.041 163.492 L 150.022 163.492 L 155.994 147.601 L 161.349 147.601 L 167.322 163.492 L 162.184 163.492 Z M 160.374 157.433 L 158.618 151.72 L 156.872 157.433 Z" transform="matrix(10.05, 0, 0, 9.774194, -1351.904663, -1270.736938)" style="fill: rgb(255, 215, 0); white-space: pre;"/>
    <path d="M 161.404 160.869 L 155.81 160.869 L 155.041 163.492 L 150.022 163.492 L 155.994 147.601 L 161.349 147.601 L 167.322 163.492 L 162.184 163.492 Z M 160.374 157.433 L 158.618 151.72 L 156.872 157.433 Z" transform="matrix(10.05, 0, 0, 9.774194, -1342.825073, -1275.067505)" style="fill: rgb(2, 44, 67); white-space: pre;"/>
  </g>
</svg>